<mxfile host="app.diagrams.net" modified="2020-11-02T21:07:11.256Z" agent="5.0 (X11; Linux x86_64) AppleWebKit/537.36 (KHTML, like Gecko) Chrome/86.0.4240.75 Safari/537.36" etag="EAJfz-rRLMXApzpxVkhO" version="13.8.3" type="github">
  <diagram id="FAgFG5ZyxgcVu0X7kMCV" name="Page-1">
    <mxGraphModel dx="1185" dy="744" grid="1" gridSize="10" guides="1" tooltips="1" connect="1" arrows="1" fold="1" page="1" pageScale="1" pageWidth="827" pageHeight="1169" math="0" shadow="0">
      <root>
        <mxCell id="0" />
        <mxCell id="1" parent="0" />
        <mxCell id="TqN6AhZks2-ZumBGRdYX-1" value="&lt;b&gt;MBR&lt;/b&gt;&lt;br&gt;&lt;font style=&quot;font-size: 9px&quot;&gt;4 KB&lt;/font&gt;" style="rounded=0;whiteSpace=wrap;html=1;strokeWidth=1;perimeterSpacing=0;" parent="1" vertex="1">
          <mxGeometry x="80" y="480" width="120" height="40" as="geometry" />
        </mxCell>
        <mxCell id="TqN6AhZks2-ZumBGRdYX-2" value="&lt;b&gt;SoftDevice&lt;/b&gt;&lt;br&gt;&lt;font style=&quot;font-size: 9px&quot;&gt;108 KB&lt;/font&gt;" style="rounded=0;whiteSpace=wrap;html=1;strokeWidth=1;perimeterSpacing=0;" parent="1" vertex="1">
          <mxGeometry x="80" y="400" width="120" height="80" as="geometry" />
        </mxCell>
        <mxCell id="TqN6AhZks2-ZumBGRdYX-3" value="&lt;b&gt;Application&lt;/b&gt;&lt;br&gt;&lt;font style=&quot;font-size: 9px&quot;&gt;128 KB (max)&lt;br&gt;112 KB (optimal)&lt;br&gt;&lt;/font&gt;" style="rounded=0;whiteSpace=wrap;html=1;strokeWidth=1;perimeterSpacing=0;" parent="1" vertex="1">
          <mxGeometry x="80" y="320" width="120" height="80" as="geometry" />
        </mxCell>
        <mxCell id="TqN6AhZks2-ZumBGRdYX-4" value="&lt;b&gt;Stage Area&lt;br&gt;&lt;/b&gt;&lt;div&gt;&lt;font style=&quot;font-size: 9px&quot;&gt;236 KB (min)&lt;/font&gt;&lt;/div&gt;&lt;div&gt;&lt;font style=&quot;font-size: 9px&quot;&gt;248 KB (optimal)&lt;/font&gt;&lt;/div&gt;" style="rounded=0;whiteSpace=wrap;html=1;strokeWidth=1;perimeterSpacing=0;" parent="1" vertex="1">
          <mxGeometry x="80" y="200" width="120" height="120" as="geometry" />
        </mxCell>
        <mxCell id="TqN6AhZks2-ZumBGRdYX-5" value="&lt;b&gt;App configuration&lt;br&gt;&lt;/b&gt;&lt;font style=&quot;font-size: 9px&quot;&gt;4KB&lt;/font&gt;" style="rounded=0;whiteSpace=wrap;html=1;strokeWidth=1;perimeterSpacing=0;" parent="1" vertex="1">
          <mxGeometry x="80" y="160" width="120" height="40" as="geometry" />
        </mxCell>
        <mxCell id="TqN6AhZks2-ZumBGRdYX-6" value="&lt;b&gt;Bootloader&lt;br&gt;&lt;/b&gt;&lt;font style=&quot;font-size: 9px&quot;&gt;28 KB&lt;/font&gt;" style="rounded=0;whiteSpace=wrap;html=1;strokeWidth=1;perimeterSpacing=0;" parent="1" vertex="1">
          <mxGeometry x="80" y="80" width="120" height="80" as="geometry" />
        </mxCell>
        <mxCell id="TqN6AhZks2-ZumBGRdYX-7" value="&lt;b&gt;MBR configuration&lt;br&gt;&lt;/b&gt;&lt;font style=&quot;font-size: 9px&quot;&gt;4KB&lt;/font&gt;" style="rounded=0;whiteSpace=wrap;html=1;strokeWidth=1;perimeterSpacing=0;" parent="1" vertex="1">
          <mxGeometry x="80" y="40" width="120" height="40" as="geometry" />
        </mxCell>
        <mxCell id="TqN6AhZks2-ZumBGRdYX-8" value="" style="shape=curlyBracket;whiteSpace=wrap;html=1;rounded=1;rotation=0;" parent="1" vertex="1">
          <mxGeometry x="50" y="400" width="20" height="80" as="geometry" />
        </mxCell>
        <mxCell id="TqN6AhZks2-ZumBGRdYX-9" value="" style="shape=curlyBracket;whiteSpace=wrap;html=1;rounded=1;rotation=0;" parent="1" vertex="1">
          <mxGeometry x="50" y="320" width="20" height="80" as="geometry" />
        </mxCell>
        <mxCell id="TqN6AhZks2-ZumBGRdYX-10" value="" style="shape=curlyBracket;whiteSpace=wrap;html=1;rounded=1;rotation=0;" parent="1" vertex="1">
          <mxGeometry x="50" y="80" width="20" height="80" as="geometry" />
        </mxCell>
        <mxCell id="TqN6AhZks2-ZumBGRdYX-11" value="Payload 0" style="text;html=1;strokeColor=none;fillColor=none;align=center;verticalAlign=middle;whiteSpace=wrap;rounded=0;horizontal=0;fontStyle=1" parent="1" vertex="1">
          <mxGeometry x="30" y="400" width="20" height="80" as="geometry" />
        </mxCell>
        <mxCell id="TqN6AhZks2-ZumBGRdYX-12" value="Payload 1" style="text;html=1;strokeColor=none;fillColor=none;align=center;verticalAlign=middle;whiteSpace=wrap;rounded=0;horizontal=0;fontStyle=1" parent="1" vertex="1">
          <mxGeometry x="30" y="320" width="20" height="80" as="geometry" />
        </mxCell>
        <mxCell id="TqN6AhZks2-ZumBGRdYX-13" value="Payload 2" style="text;html=1;strokeColor=none;fillColor=none;align=center;verticalAlign=middle;whiteSpace=wrap;rounded=0;horizontal=0;fontStyle=1" parent="1" vertex="1">
          <mxGeometry x="30" y="80" width="20" height="80" as="geometry" />
        </mxCell>
        <mxCell id="TqN6AhZks2-ZumBGRdYX-14" value="0x00000" style="text;html=1;strokeColor=none;fillColor=none;align=left;verticalAlign=middle;whiteSpace=wrap;rounded=0;rotation=0;" parent="1" vertex="1">
          <mxGeometry x="210" y="510" width="60" height="20" as="geometry" />
        </mxCell>
        <mxCell id="TqN6AhZks2-ZumBGRdYX-16" value="0x01000" style="text;html=1;strokeColor=none;fillColor=none;align=left;verticalAlign=middle;whiteSpace=wrap;rounded=0;rotation=0;" parent="1" vertex="1">
          <mxGeometry x="210" y="470" width="60" height="20" as="geometry" />
        </mxCell>
        <mxCell id="TqN6AhZks2-ZumBGRdYX-17" value="0x78000" style="text;html=1;strokeColor=none;fillColor=none;align=left;verticalAlign=middle;whiteSpace=wrap;rounded=0;rotation=0;" parent="1" vertex="1">
          <mxGeometry x="210" y="150" width="60" height="20" as="geometry" />
        </mxCell>
        <mxCell id="TqN6AhZks2-ZumBGRdYX-18" value="0x1C000" style="text;html=1;strokeColor=none;fillColor=none;align=left;verticalAlign=middle;whiteSpace=wrap;rounded=0;rotation=0;" parent="1" vertex="1">
          <mxGeometry x="210" y="390" width="60" height="20" as="geometry" />
        </mxCell>
        <mxCell id="TqN6AhZks2-ZumBGRdYX-19" value="0x3C000 (max)&lt;br&gt;0x38000 (optimal)" style="text;html=1;strokeColor=none;fillColor=none;align=left;verticalAlign=middle;whiteSpace=wrap;rounded=0;rotation=0;" parent="1" vertex="1">
          <mxGeometry x="210" y="310" width="120" height="20" as="geometry" />
        </mxCell>
        <mxCell id="TqN6AhZks2-ZumBGRdYX-20" value="0x77000" style="text;html=1;strokeColor=none;fillColor=none;align=left;verticalAlign=middle;whiteSpace=wrap;rounded=0;rotation=0;" parent="1" vertex="1">
          <mxGeometry x="210" y="190" width="60" height="20" as="geometry" />
        </mxCell>
        <mxCell id="TqN6AhZks2-ZumBGRdYX-23" value="" style="shape=curlyBracket;whiteSpace=wrap;html=1;rounded=1;rotation=0;" parent="1" vertex="1">
          <mxGeometry x="310" y="120" width="20" height="40" as="geometry" />
        </mxCell>
        <mxCell id="TqN6AhZks2-ZumBGRdYX-24" value="Payload 3" style="text;html=1;strokeColor=none;fillColor=none;align=center;verticalAlign=middle;whiteSpace=wrap;rounded=0;horizontal=0;fontStyle=1" parent="1" vertex="1">
          <mxGeometry x="290" y="90" width="20" height="100" as="geometry" />
        </mxCell>
        <mxCell id="TqN6AhZks2-ZumBGRdYX-25" value="&lt;b&gt;Update script&lt;br&gt;&lt;/b&gt;&lt;font style=&quot;font-size: 9px&quot;&gt;4 KB&lt;/font&gt;" style="rounded=0;whiteSpace=wrap;html=1;strokeWidth=1;perimeterSpacing=0;" parent="1" vertex="1">
          <mxGeometry x="340" y="120" width="120" height="40" as="geometry" />
        </mxCell>
        <mxCell id="TqN6AhZks2-ZumBGRdYX-26" value="&lt;b&gt;Bootloader code&lt;br&gt;&lt;/b&gt;&lt;font style=&quot;font-size: 9px&quot;&gt;20 KB&lt;/font&gt;" style="rounded=0;whiteSpace=wrap;html=1;strokeWidth=1;perimeterSpacing=0;" parent="1" vertex="1">
          <mxGeometry x="340" y="160" width="120" height="80" as="geometry" />
        </mxCell>
        <mxCell id="TqN6AhZks2-ZumBGRdYX-27" value="&lt;b&gt;Default script&lt;br&gt;&lt;/b&gt;&lt;font style=&quot;font-size: 9px&quot;&gt;4 KB&lt;/font&gt;" style="rounded=0;whiteSpace=wrap;html=1;strokeWidth=1;perimeterSpacing=0;" parent="1" vertex="1">
          <mxGeometry x="340" y="80" width="120" height="40" as="geometry" />
        </mxCell>
        <mxCell id="TqN6AhZks2-ZumBGRdYX-28" value="" style="endArrow=none;html=1;entryX=1;entryY=0.5;entryDx=0;entryDy=0;exitX=0;exitY=1;exitDx=0;exitDy=0;" parent="1" source="TqN6AhZks2-ZumBGRdYX-26" target="TqN6AhZks2-ZumBGRdYX-17" edge="1">
          <mxGeometry width="50" height="50" relative="1" as="geometry">
            <mxPoint x="510" y="120" as="sourcePoint" />
            <mxPoint x="560" y="70" as="targetPoint" />
          </mxGeometry>
        </mxCell>
        <mxCell id="TqN6AhZks2-ZumBGRdYX-29" value="" style="endArrow=none;html=1;exitX=0;exitY=0;exitDx=0;exitDy=0;entryX=1;entryY=0.5;entryDx=0;entryDy=0;" parent="1" source="TqN6AhZks2-ZumBGRdYX-27" target="TqN6AhZks2-ZumBGRdYX-32" edge="1">
          <mxGeometry width="50" height="50" relative="1" as="geometry">
            <mxPoint x="790" y="20" as="sourcePoint" />
            <mxPoint x="676" y="10" as="targetPoint" />
          </mxGeometry>
        </mxCell>
        <mxCell id="TqN6AhZks2-ZumBGRdYX-31" value="0x80000" style="text;html=1;strokeColor=none;fillColor=none;align=left;verticalAlign=middle;whiteSpace=wrap;rounded=0;rotation=0;" parent="1" vertex="1">
          <mxGeometry x="210" y="30" width="60" height="20" as="geometry" />
        </mxCell>
        <mxCell id="TqN6AhZks2-ZumBGRdYX-32" value="0x7F000" style="text;html=1;strokeColor=none;fillColor=none;align=left;verticalAlign=middle;whiteSpace=wrap;rounded=0;rotation=0;" parent="1" vertex="1">
          <mxGeometry x="210" y="70" width="60" height="20" as="geometry" />
        </mxCell>
        <mxCell id="TqN6AhZks2-ZumBGRdYX-33" value="0x7D000" style="text;html=1;strokeColor=none;fillColor=none;align=left;verticalAlign=middle;whiteSpace=wrap;rounded=0;rotation=0;" parent="1" vertex="1">
          <mxGeometry x="470" y="150" width="80" height="20" as="geometry" />
        </mxCell>
        <mxCell id="TqN6AhZks2-ZumBGRdYX-34" value="0x7E000" style="text;html=1;strokeColor=none;fillColor=none;align=left;verticalAlign=middle;whiteSpace=wrap;rounded=0;rotation=0;" parent="1" vertex="1">
          <mxGeometry x="470" y="110" width="80" height="20" as="geometry" />
        </mxCell>
        <mxCell id="imYt1NDGo7FPGP8G_VjM-1" value="0x78000" style="text;html=1;strokeColor=none;fillColor=none;align=left;verticalAlign=middle;whiteSpace=wrap;rounded=0;rotation=0;" vertex="1" parent="1">
          <mxGeometry x="470" y="230" width="60" height="20" as="geometry" />
        </mxCell>
        <mxCell id="imYt1NDGo7FPGP8G_VjM-2" value="0x7F000" style="text;html=1;strokeColor=none;fillColor=none;align=left;verticalAlign=middle;whiteSpace=wrap;rounded=0;rotation=0;" vertex="1" parent="1">
          <mxGeometry x="470" y="70" width="60" height="20" as="geometry" />
        </mxCell>
      </root>
    </mxGraphModel>
  </diagram>
</mxfile>
